<svg width="228" height="228" viewBox="0 0 228 228" fill="none" xmlns="http://www.w3.org/2000/svg">
<path d="M120.716 34.542C118.935 32.761 116.519 31.7605 114 31.7605C111.481 31.7605 109.065 32.761 107.283 34.542L53.542 88.2835C52.6346 89.1598 51.9109 90.2081 51.413 91.3671C50.9151 92.5262 50.653 93.7728 50.6421 95.0342C50.6311 96.2956 50.8715 97.5465 51.3492 98.714C51.8268 99.8815 52.5322 100.942 53.4242 101.834C54.3162 102.726 55.3769 103.432 56.5444 103.909C57.7119 104.387 58.9629 104.627 60.2243 104.616C61.4857 104.605 62.7323 104.343 63.8913 103.845C65.0503 103.348 66.0986 102.624 66.975 101.716L104.5 64.1915V190C104.5 192.52 105.501 194.936 107.282 196.717C109.064 198.499 111.48 199.5 114 199.5C116.52 199.5 118.936 198.499 120.717 196.717C122.499 194.936 123.5 192.52 123.5 190V64.1915L161.025 101.716C162.817 103.447 165.216 104.405 167.707 104.383C170.198 104.361 172.581 103.362 174.342 101.601C176.104 99.8394 177.103 97.4566 177.124 94.9658C177.146 92.4749 176.188 90.0752 174.458 88.2835L120.716 34.542Z" fill="black"/>
</svg>
