<svg width="252" height="252" viewBox="0 0 252 252" fill="none" xmlns="http://www.w3.org/2000/svg">
<path d="M126 0C195.588 0 252 56.4121 252 126C252 195.588 195.588 252 126 252C56.4121 252 0 195.588 0 126C0 56.4121 56.4121 0 126 0ZM126.358 42C123.839 42 121.423 43.0003 119.642 44.7812L65.9004 98.5234C64.9932 99.3997 64.2693 100.448 63.7715 101.606C63.2736 102.765 63.011 104.012 63 105.273C62.989 106.535 63.2295 107.786 63.707 108.953C64.1846 110.12 64.8904 111.181 65.7822 112.073C66.6741 112.965 67.735 113.671 68.9023 114.148C70.0699 114.626 71.3216 114.866 72.583 114.855C73.8443 114.844 75.0911 114.583 76.25 114.085C77.4088 113.587 78.4568 112.863 79.333 111.956L116.858 74.4307V200.239C116.858 202.759 117.859 205.175 119.641 206.957C121.422 208.739 123.839 209.739 126.358 209.739C128.878 209.739 131.295 208.739 133.076 206.957C134.858 205.175 135.858 202.759 135.858 200.239V74.4307L173.383 111.956C175.175 113.687 177.575 114.644 180.065 114.622C182.556 114.6 184.939 113.601 186.7 111.84C188.462 110.078 189.461 107.696 189.482 105.205C189.504 102.714 188.547 100.315 186.816 98.5234L133.075 44.7812C131.294 43.0003 128.877 42 126.358 42Z" fill="black"/>
</svg>
